<?xml version="1.0" encoding="UTF-8" standalone="no"?><!DOCTYPE svg PUBLIC "-//W3C//DTD SVG 1.1//EN" "http://www.w3.org/Graphics/SVG/1.1/DTD/svg11.dtd"><svg width="100%" height="100%" viewBox="0 0 192 164" version="1.1" xmlns="http://www.w3.org/2000/svg" xmlns:xlink="http://www.w3.org/1999/xlink" xml:space="preserve" xmlns:serif="http://www.serif.com/" style="fill-rule:evenodd;clip-rule:evenodd;stroke-linejoin:round;stroke-miterlimit:2;"><path d="M95.528,37.017c-11.314,0.126 -22.929,1.933 -32.276,5.424c-23.646,8.832 -23.58,21.086 -23.04,61.2c0.087,6.434 3.378,12.441 9.826,17.421c-0.684,1.302 -1.062,2.242 -1.519,4.984c-0.833,5 -1.566,9.785 -1.766,14.576c-4.778,-1.532 -7.591,-2.018 -13.982,-6.501c-19.73,-13.838 1.462,-58.273 -29.45,-53.355c-13.188,2.098 16.785,-31.972 22.01,-38.085c11.063,-12.944 24.21,-22.001 9.84,-37.68c-14.041,-15.32 41.197,9.45 60.356,9.45c19.159,0 74.397,-24.77 60.356,-9.45c-14.37,15.679 -1.223,24.736 9.84,37.68c5.225,6.113 35.197,40.183 22.01,38.085c-30.912,-4.918 -9.72,39.517 -29.45,53.355c-6.391,4.483 -9.204,4.969 -13.982,6.501c-0.2,-4.791 -0.933,-9.576 -1.766,-14.576c-0.457,-2.742 -0.835,-3.682 -1.519,-4.984c6.448,-4.98 9.74,-10.987 9.826,-17.421c0.54,-40.114 0.606,-52.368 -23.04,-61.2c-9.346,-3.491 -20.962,-5.297 -32.276,-5.424Zm0,111.593c-6.299,0 -25.881,9.47 -31.856,13.434c-2.985,1.981 -6.918,1.818 -10.025,0.033c-3.107,-1.784 -5.022,-5.094 -5.022,-8.676c0,0 -0.327,-10.847 1.398,-23.585c1.24,-9.158 2.706,-9.822 3.624,-10.35c3.107,-1.784 9.157,0.26 12.905,2.433c8.963,5.196 19.317,15.841 28.976,15.841c9.659,0 20.013,-10.645 28.976,-15.841c3.748,-2.173 9.798,-4.218 12.905,-2.433c0.918,0.527 2.383,1.191 3.624,10.35c1.725,12.739 1.398,23.585 1.398,23.585c0,3.583 -1.915,6.892 -5.022,8.676c-3.107,1.784 -7.04,1.948 -10.025,-0.033c-5.975,-3.965 -25.557,-13.434 -31.856,-13.434Zm-9.716,-77.849l0,26.64c0,5.033 -4.087,9.12 -9.12,9.12c-5.033,0 -9.12,-4.087 -9.12,-9.12l0,-26.64c0,-5.033 4.087,-9.12 9.12,-9.12c5.033,0 9.12,4.087 9.12,9.12Zm19.432,0c0,-5.033 4.087,-9.12 9.12,-9.12c5.033,0 9.12,4.087 9.12,9.12l0,26.64c0,5.033 -4.087,9.12 -9.12,9.12c-5.033,0 -9.12,-4.087 -9.12,-9.12l0,-26.64Z"/></svg>